<svg xmlns="http://www.w3.org/2000/svg" xmlns:xlink="http://www.w3.org/1999/xlink" width="500" zoomAndPan="magnify" viewBox="0 0 375 374.999991" height="500" preserveAspectRatio="xMidYMid meet" version="1.2"><defs><clipPath id="aa9e49c16f"><path d="M 199.632812 224.632812 L 269.484375 224.632812 L 269.484375 294.484375 L 199.632812 294.484375 Z M 199.632812 224.632812 "/></clipPath><clipPath id="10504da77d"><path d="M 234.558594 224.632812 C 215.269531 224.632812 199.632812 240.269531 199.632812 259.558594 C 199.632812 278.847656 215.269531 294.484375 234.558594 294.484375 C 253.847656 294.484375 269.484375 278.847656 269.484375 259.558594 C 269.484375 240.269531 253.847656 224.632812 234.558594 224.632812 Z M 234.558594 224.632812 "/></clipPath><clipPath id="ff805dfaae"><path d="M 0.632812 0.632812 L 70.484375 0.632812 L 70.484375 70.484375 L 0.632812 70.484375 Z M 0.632812 0.632812 "/></clipPath><clipPath id="ee609536a7"><path d="M 35.558594 0.632812 C 16.269531 0.632812 0.632812 16.269531 0.632812 35.558594 C 0.632812 54.847656 16.269531 70.484375 35.558594 70.484375 C 54.847656 70.484375 70.484375 54.847656 70.484375 35.558594 C 70.484375 16.269531 54.847656 0.632812 35.558594 0.632812 Z M 35.558594 0.632812 "/></clipPath><clipPath id="87dfa923f5"><rect x="0" width="71" y="0" height="71"/></clipPath></defs><g id="f668edeff2"><path style=" stroke:none;fill-rule:nonzero;fill:#c63723;fill-opacity:1;" d="M 71.496094 131.792969 C 150.445312 -87.726562 397.21875 75.800781 274.886719 244.828125 C 276.578125 249.332031 277.421875 254.261719 277.421875 259.261719 C 277.421875 282.574219 258.621094 301.378906 235.308594 301.378906 C 211.996094 301.378906 193.191406 282.574219 193.191406 259.261719 C 193.191406 235.953125 211.996094 217.148438 235.308594 217.148438 C 237.703125 217.148438 240.027344 217.21875 242.28125 217.640625 C 311.511719 103.269531 182.417969 -44.132812 88.257812 123.832031 C 82.554688 126.15625 76.917969 128.761719 71.496094 131.792969 Z M 71.496094 131.792969 "/><path style=" stroke:none;fill-rule:nonzero;fill:#fb2c36;fill-opacity:1;" d="M 317.214844 152.566406 C 467.855469 330.675781 202.769531 462.726562 117.554688 272.292969 C 112.835938 271.449219 108.257812 269.757812 103.890625 267.292969 C 83.75 255.601562 76.847656 229.894531 88.398438 209.753906 C 100.089844 189.613281 125.9375 182.710938 145.9375 194.261719 C 166.078125 205.878906 172.980469 231.65625 161.429688 251.796875 C 160.304688 253.910156 158.894531 255.742188 157.488281 257.574219 C 221.925781 374.761719 414.191406 336.664062 315.734375 171.089844 C 316.582031 164.890625 317.074219 158.765625 317.214844 152.566406 Z M 317.214844 152.566406 "/><path style=" stroke:none;fill-rule:nonzero;fill:#fc7900;fill-opacity:1;" d="M 176.289062 355.042969 C -53.160156 396.382812 -34.988281 100.875 172.488281 122.285156 C 175.65625 118.621094 179.25 115.523438 183.6875 112.988281 C 203.828125 101.296875 229.675781 108.199219 241.222656 128.339844 C 252.914062 148.484375 246.011719 174.328125 225.871094 185.878906 C 205.730469 197.570312 179.882812 190.597656 168.332031 170.527344 C 167.066406 168.414062 166.148438 166.371094 165.304688 164.1875 C 31.5625 161.371094 -31.539062 347.015625 161.007812 344.480469 C 165.9375 348.28125 170.9375 351.804688 176.289062 355.042969 Z M 176.289062 355.042969 "/><g clip-rule="nonzero" clip-path="url(#aa9e49c16f)"><g clip-rule="nonzero" clip-path="url(#10504da77d)"><g transform="matrix(1,0,0,1,199,224)"><g clip-path="url(#87dfa923f5)"><g clip-rule="nonzero" clip-path="url(#ff805dfaae)"><g clip-rule="nonzero" clip-path="url(#ee609536a7)"><path style=" stroke:none;fill-rule:nonzero;fill:#c63723;fill-opacity:1;" d="M 0.632812 0.632812 L 70.484375 0.632812 L 70.484375 70.484375 L 0.632812 70.484375 Z M 0.632812 0.632812 "/></g></g></g></g></g></g></g></svg>